{
  "accessors": [
    {
      "bufferView": 1,
      "componentType": 5126,
      "count": 2735,
      "max": [
        25.376300811767578,
        -51.546001434326172,
        34.162998199462891
      ],
      "min": [
        -26.210300445556641,
        -133.74830627441406,
        -37.445999145507812
      ],
      "type": "VEC3"
    },
    {
      "bufferView": 1,
      "byteOffset": 32820,
      "componentType": 5126,
      "count": 2735,
      "max": [
        1,
        1,
        1
      ],
      "min": [
        -1,
        -1,
        -1
      ],
      "type": "VEC3"
    },
    {
      "bufferView": 0,
      "componentType": 5125,
      "count": 9681,
      "max": [
        2734
      ],
      "min": [
        0
      ],
      "type": "SCALAR"
    },
    {
      "bufferView": 1,
      "byteOffset": 65640,
      "componentType": 5126,
      "count": 8380,
      "max": [
        55.165798187255859,
        -5.1469998359680176,
        34.154998779296875
      ],
      "min": [
        -55.999801635742188,
        -164.35479736328125,
        -37.544998168945312
      ],
      "type": "VEC3"
    },
    {
      "bufferView": 1,
      "byteOffset": 166200,
      "componentType": 5126,
      "count": 8380,
      "max": [
        1,
        1,
        1
      ],
      "min": [
        -1,
        -1,
        -1
      ],
      "type": "VEC3"
    },
    {
      "bufferView": 0,
      "byteOffset": 38724,
      "componentType": 5125,
      "count": 26070,
      "max": [
        8379
      ],
      "min": [
        0
      ],
      "type": "SCALAR"
    },
    {
      "bufferView": 1,
      "byteOffset": 266760,
      "componentType": 5126,
      "count": 13312,
      "max": [
        40.201000213623047,
        89.7615966796875,
        36.354999542236328
      ],
      "min": [
        -42.201000213623047,
        -66.25250244140625,
        -26.747400283813477
      ],
      "type": "VEC3"
    },
    {
      "bufferView": 1,
      "byteOffset": 426504,
      "componentType": 5126,
      "count": 13312,
      "max": [
        1,
        1,
        1
      ],
      "min": [
        -1,
        -1,
        -1
      ],
      "type": "VEC3"
    },
    {
      "bufferView": 0,
      "byteOffset": 143004,
      "componentType": 5125,
      "count": 48876,
      "max": [
        13311
      ],
      "min": [
        0
      ],
      "type": "SCALAR"
    },
    {
      "bufferView": 1,
      "byteOffset": 586248,
      "componentType": 5126,
      "count": 1105,
      "max": [
        7.4939999580383301,
        -82.945999145507812,
        -15.626999855041504
      ],
      "min": [
        -8.3409996032714844,
        -89.146003723144531,
        -31.461999893188477
      ],
      "type": "VEC3"
    },
    {
      "bufferView": 1,
      "byteOffset": 599508,
      "componentType": 5126,
      "count": 1105,
      "max": [
        0.99994856119155884,
        1,
        0.99999874830245972
      ],
      "min": [
        -1,
        -1,
        -0.99942940473556519
      ],
      "type": "VEC3"
    },
    {
      "bufferView": 0,
      "byteOffset": 338508,
      "componentType": 5125,
      "count": 5520,
      "max": [
        1104
      ],
      "min": [
        0
      ],
      "type": "SCALAR"
    },
    {
      "bufferView": 1,
      "byteOffset": 612768,
      "componentType": 5126,
      "count": 173,
      "max": [
        13.944000244140625,
        -43.615001678466797,
        -22.563999176025391
      ],
      "min": [
        -15,
        -70.218002319335938,
        -24.527000427246094
      ],
      "type": "VEC3"
    },
    {
      "bufferView": 1,
      "byteOffset": 614844,
      "componentType": 5126,
      "count": 173,
      "max": [
        0.99939233064651489,
        0.99941062927246094,
        1
      ],
      "min": [
        -0.99939233064651489,
        -0.99938774108886719,
        -1
      ],
      "type": "VEC3"
    },
    {
      "bufferView": 0,
      "byteOffset": 360588,
      "componentType": 5125,
      "count": 339,
      "max": [
        172
      ],
      "min": [
        0
      ],
      "type": "SCALAR"
    },
    {
      "bufferView": 1,
      "byteOffset": 616920,
      "componentType": 5126,
      "count": 618,
      "max": [
        2.7797999382019043,
        -104.89140319824219,
        35.362998962402344
      ],
      "min": [
        -3.6138999462127686,
        -112.56880187988281,
        1.4550000429153442
      ],
      "type": "VEC3"
    },
    {
      "bufferView": 1,
      "byteOffset": 624336,
      "componentType": 5126,
      "count": 618,
      "max": [
        0.99386137723922729,
        0.99439209699630737,
        1
      ],
      "min": [
        -1,
        -0.99062919616699219,
        -1
      ],
      "type": "VEC3"
    },
    {
      "bufferView": 0,
      "byteOffset": 361944,
      "componentType": 5125,
      "count": 2682,
      "max": [
        617
      ],
      "min": [
        0
      ],
      "type": "SCALAR"
    },
    {
      "bufferView": 1,
      "byteOffset": 631752,
      "componentType": 5126,
      "count": 10580,
      "max": [
        40.250999450683594,
        84.911003112792969,
        36.173000335693359
      ],
      "min": [
        -42.250999450683594,
        -65.711700439453125,
        20.785900115966797
      ],
      "type": "VEC3"
    },
    {
      "bufferView": 1,
      "byteOffset": 758712,
      "componentType": 5126,
      "count": 10580,
      "max": [
        1,
        1,
        1
      ],
      "min": [
        -1,
        -1,
        -1
      ],
      "type": "VEC3"
    },
    {
      "bufferView": 0,
      "byteOffset": 372672,
      "componentType": 5125,
      "count": 30894,
      "max": [
        10579
      ],
      "min": [
        0
      ],
      "type": "SCALAR"
    },
    {
      "bufferView": 1,
      "byteOffset": 885672,
      "componentType": 5126,
      "count": 46,
      "max": [
        35.750999450683594,
        90.454200744628906,
        33.354999542236328
      ],
      "min": [
        -37.750999450683594,
        83.516799926757812,
        23.354999542236328
      ],
      "type": "VEC3"
    },
    {
      "bufferView": 1,
      "byteOffset": 886224,
      "componentType": 5126,
      "count": 46,
      "max": [
        1,
        0.92388045787811279,
        1
      ],
      "min": [
        -1,
        0,
        -1
      ],
      "type": "VEC3"
    },
    {
      "bufferView": 0,
      "byteOffset": 496248,
      "componentType": 5125,
      "count": 78,
      "max": [
        45
      ],
      "min": [
        0
      ],
      "type": "SCALAR"
    },
    {
      "bufferView": 1,
      "byteOffset": 886776,
      "componentType": 5126,
      "count": 699,
      "max": [
        29.729000091552734,
        -2.5460000038146973,
        28.397699356079102
      ],
      "min": [
        -31.729000091552734,
        -79.821502685546875,
        -26.844999313354492
      ],
      "type": "VEC3"
    },
    {
      "bufferView": 1,
      "byteOffset": 895164,
      "componentType": 5126,
      "count": 699,
      "max": [
        1,
        1,
        1
      ],
      "min": [
        -1,
        -1,
        -1
      ],
      "type": "VEC3"
    },
    {
      "bufferView": 0,
      "byteOffset": 496560,
      "componentType": 5125,
      "count": 1713,
      "max": [
        698
      ],
      "min": [
        0
      ],
      "type": "SCALAR"
    }
  ],
  "asset": {
    "extras": {
      "author": "Starfleet (https://sketchfab.com/magnificoh890)",
      "license": "CC-BY-4.0 (http://creativecommons.org/licenses/by/4.0/)",
      "source": "https://sketchfab.com/3d-models/uss-boise-eac9a47bb62b4e9a84dde00c558cb12f",
      "title": "USS Boise"
    },
    "generator": "Sketchfab-9.59.0",
    "version": "2.0"
  },
  "bufferViews": [
    {
      "buffer": 0,
      "byteLength": 503412,
      "byteOffset": 0,
      "name": "floatBufferViews",
      "target": 34963
    },
    {
      "buffer": 0,
      "byteLength": 903552,
      "byteOffset": 503412,
      "byteStride": 12,
      "name": "floatBufferViews",
      "target": 34962
    }
  ],
  "buffers": [
    {
      "byteLength": 1406964,
      "uri": "scene.bin"
    }
  ],
  "materials": [
    {
      "doubleSided": true,
      "emissiveFactor": [
        0,
        0,
        0
      ],
      "name": "color_10988977",
      "pbrMetallicRoughness": {
        "baseColorFactor": [
          0.65490199999999998,
          0.67843100000000001,
          0.69411800000000001,
          1
        ],
        "metallicFactor": 0,
        "roughnessFactor": 1
      }
    },
    {
      "doubleSided": true,
      "emissiveFactor": [
        0,
        0,
        0
      ],
      "name": "color_12568524",
      "pbrMetallicRoughness": {
        "baseColorFactor": [
          0.74902000000000002,
          0.78039199999999997,
          0.80000000000000004,
          1
        ],
        "metallicFactor": 0,
        "roughnessFactor": 1
      }
    },
    {
      "doubleSided": true,
      "emissiveFactor": [
        0,
        0,
        0
      ],
      "name": "color_14541540",
      "pbrMetallicRoughness": {
        "baseColorFactor": [
          0.86666699999999997,
          0.88627500000000003,
          0.89411799999999997,
          1
        ],
        "metallicFactor": 0,
        "roughnessFactor": 1
      }
    },
    {
      "doubleSided": true,
      "emissiveFactor": [
        0,
        0,
        0
      ],
      "name": "color_14860437",
      "pbrMetallicRoughness": {
        "baseColorFactor": [
          0.88627500000000003,
          0.75294099999999997,
          0.584314,
          1
        ],
        "metallicFactor": 0,
        "roughnessFactor": 1
      }
    },
    {
      "doubleSided": true,
      "emissiveFactor": [
        0,
        0,
        0
      ],
      "name": "color_15277357",
      "pbrMetallicRoughness": {
        "baseColorFactor": [
          0.91372500000000001,
          0.11372500000000001,
          0.17647099999999999,
          1
        ],
        "metallicFactor": 0,
        "roughnessFactor": 1
      }
    },
    {
      "doubleSided": true,
      "emissiveFactor": [
        0,
        0,
        0
      ],
      "name": "color_16448250",
      "pbrMetallicRoughness": {
        "baseColorFactor": [
          0.98039200000000004,
          0.98039200000000004,
          0.98039200000000004,
          1
        ],
        "metallicFactor": 0,
        "roughnessFactor": 1
      }
    },
    {
      "doubleSided": true,
      "emissiveFactor": [
        0,
        0,
        0
      ],
      "name": "color_2829873",
      "pbrMetallicRoughness": {
        "baseColorFactor": [
          0.168627,
          0.180392,
          0.19215699999999999,
          1
        ],
        "metallicFactor": 0,
        "roughnessFactor": 1
      }
    },
    {
      "doubleSided": true,
      "emissiveFactor": [
        0,
        0,
        0
      ],
      "name": "color_3888547",
      "pbrMetallicRoughness": {
        "baseColorFactor": [
          0.231373,
          0.33333299999999999,
          0.63921600000000001,
          1
        ],
        "metallicFactor": 0,
        "roughnessFactor": 1
      }
    },
    {
      "doubleSided": true,
      "emissiveFactor": [
        0,
        0,
        0
      ],
      "name": "color_6383466",
      "pbrMetallicRoughness": {
        "baseColorFactor": [
          0.38039200000000001,
          0.403922,
          0.415686,
          1
        ],
        "metallicFactor": 0,
        "roughnessFactor": 1
      }
    }
  ],
  "meshes": [
    {
      "primitives": [
        {
          "attributes": {
            "NORMAL": 1,
            "POSITION": 0
          },
          "indices": 2,
          "material": 0,
          "mode": 4
        }
      ]
    },
    {
      "primitives": [
        {
          "attributes": {
            "NORMAL": 4,
            "POSITION": 3
          },
          "indices": 5,
          "material": 1,
          "mode": 4
        }
      ]
    },
    {
      "primitives": [
        {
          "attributes": {
            "NORMAL": 7,
            "POSITION": 6
          },
          "indices": 8,
          "material": 2,
          "mode": 4
        }
      ]
    },
    {
      "primitives": [
        {
          "attributes": {
            "NORMAL": 10,
            "POSITION": 9
          },
          "indices": 11,
          "material": 3,
          "mode": 4
        }
      ]
    },
    {
      "primitives": [
        {
          "attributes": {
            "NORMAL": 13,
            "POSITION": 12
          },
          "indices": 14,
          "material": 4,
          "mode": 4
        }
      ]
    },
    {
      "primitives": [
        {
          "attributes": {
            "NORMAL": 16,
            "POSITION": 15
          },
          "indices": 17,
          "material": 5,
          "mode": 4
        }
      ]
    },
    {
      "primitives": [
        {
          "attributes": {
            "NORMAL": 19,
            "POSITION": 18
          },
          "indices": 20,
          "material": 6,
          "mode": 4
        }
      ]
    },
    {
      "primitives": [
        {
          "attributes": {
            "NORMAL": 22,
            "POSITION": 21
          },
          "indices": 23,
          "material": 7,
          "mode": 4
        }
      ]
    },
    {
      "primitives": [
        {
          "attributes": {
            "NORMAL": 25,
            "POSITION": 24
          },
          "indices": 26,
          "material": 8,
          "mode": 4
        }
      ]
    }
  ],
  "nodes": [
    {
      "children": [
        1
      ],
      "name": "RootNode (gltf orientation matrix)",
      "rotation": [
        -0.70710678118654746,
        -0,
        -0,
        0.70710678118654757
      ]
    },
    {
      "children": [
        2
      ],
      "name": "RootNode (model correction matrix)"
    },
    {
      "children": [
        3,
        4,
        5,
        6,
        7,
        8,
        9,
        10,
        11
      ],
      "name": "tinker.obj.cleaner.materialmerger.gles"
    },
    {
      "mesh": 0,
      "name": ""
    },
    {
      "mesh": 1,
      "name": ""
    },
    {
      "mesh": 2,
      "name": ""
    },
    {
      "mesh": 3,
      "name": ""
    },
    {
      "mesh": 4,
      "name": ""
    },
    {
      "mesh": 5,
      "name": ""
    },
    {
      "mesh": 6,
      "name": ""
    },
    {
      "mesh": 7,
      "name": ""
    },
    {
      "mesh": 8,
      "name": ""
    }
  ],
  "scene": 0,
  "scenes": [
    {
      "name": "OSG_Scene",
      "nodes": [
        0
      ]
    }
  ]
}

